# xmcd
#
# Track frame offsets: 
#        150
#        23969
#        45315
#        60252
#        82946
#        103053
#        126232
#        141532
#        171046
#        187594
#        206762
#
# Disc length: 3073 seconds
#
# Revision: 0
# Processed by: cddbd v1.5.2PL0 Copyright (c) Steve Scherf et al.
# Submitted via: ExactAudioCopy v1.0b3
#
DISCID=8c0bff0b
DTITLE=Sinne Eeg - シングズ・スタンダード
DYEAR=2015
DGENRE=Jazz
TTITLE0=Willow Weep For Me
TTITLE1=Taking It Slow
TTITLE2=Evil Man Blues
TTITLE3=You Don't Know What Love Is
TTITLE4=Summertime
TTITLE5=Body And Soul
TTITLE6=Beautiful Love
TTITLE7=Come Rain or Shine
TTITLE8=Fellini's Waltz
TTITLE9=The Shadow of Your Smile
TTITLE10=Autumn Leaves
EXTD=
EXTT0=
EXTT1=
EXTT2=
EXTT3=
EXTT4=
EXTT5=
EXTT6=
EXTT7=
EXTT8=
EXTT9=
EXTT10=
PLAYORDER=
